<svg aria-hidden="true" style="position:absolute;width:0;height:0;overflow:hidden" xmlns="http://www.w3.org/2000/svg"><defs><symbol id="icon-close" viewBox="0 0 32 32">
<path d="M26.667 7.303l-1.97-1.97-7.808 7.808-7.808-7.808-1.97 1.97 7.808 7.808-7.808 7.808 1.97 1.97 7.808-7.808 7.808 7.808 1.97-1.97-7.808-7.808 7.808-7.808z"></path>
</symbol><symbol id="icon-instagram" viewBox="0 0 32 32"><path d="M31.97 9.4a11.7 11.7 0 0 0-.74-3.87 7.8 7.8 0 0 0-1.86-2.84A7.87 7.87 0 0 0 26.54.84C25.52.45 24.36.17 22.66.1 20.95.02 20.4 0 16.06 0s-4.89.02-6.6.1C7.76.16 6.6.43 5.58.83a7.8 7.8 0 0 0-2.84 1.85A7.87 7.87 0 0 0 .9 5.52C.5 6.54.23 7.7.16 9.4c-.08 1.71-.1 2.26-.1 6.6s.02 4.9.09 6.6c.08 1.7.35 2.87.74 3.88a7.9 7.9 0 0 0 1.85 2.84c.8.81 1.77 1.44 2.84 1.84 1.02.4 2.18.67 3.88.75 1.7.07 2.25.09 6.6.09s4.88-.02 6.59-.1a11.7 11.7 0 0 0 3.88-.74 8.18 8.18 0 0 0 4.68-4.68c.4-1.02.67-2.18.75-3.88.07-1.7.09-2.25.09-6.6s0-4.89-.08-6.6zm-2.88 13.07a8.76 8.76 0 0 1-.55 2.97 5.31 5.31 0 0 1-3.04 3.04c-.56.22-1.41.48-2.97.55-1.69.07-2.2.1-6.46.1s-4.79-.02-6.47-.1a8.76 8.76 0 0 1-2.97-.55 4.93 4.93 0 0 1-1.84-1.2 4.97 4.97 0 0 1-1.19-1.83 8.81 8.81 0 0 1-.55-2.97c-.07-1.69-.1-2.2-.1-6.47s.03-4.78.1-6.46c.07-1.56.33-2.4.55-2.97.26-.7.66-1.32 1.2-1.84a4.97 4.97 0 0 1 1.84-1.19A8.81 8.81 0 0 1 9.6 3c1.69-.07 2.2-.1 6.46-.1 4.28 0 4.78.03 6.47.1 1.56.07 2.4.33 2.96.55.7.26 1.33.66 1.84 1.2.53.51.94 1.14 1.2 1.83.22.57.48 1.42.55 2.97.07 1.69.1 2.2.1 6.46s-.03 4.77-.1 6.46z"/><path d="M16.06 7.78a8.22 8.22 0 1 0 0 16.45 8.22 8.22 0 0 0 0-16.45zm0 13.55a5.33 5.33 0 1 1 0-10.66 5.33 5.33 0 0 1 0 10.67zM26.52 7.46a1.92 1.92 0 1 1-3.83 0 1.92 1.92 0 0 1 3.83 0z"/></symbol><symbol id="icon-twitter" viewBox="0 0 32 32"><path d="M32 6.08c-1.19.52-2.46.87-3.78 1.03a6.52 6.52 0 0 0 2.89-3.62 13.11 13.11 0 0 1-4.16 1.59 6.57 6.57 0 0 0-11.2 5.98A18.57 18.57 0 0 1 2.23 4.2a6.57 6.57 0 0 0 2.02 8.77 6.48 6.48 0 0 1-2.97-.81v.07a6.59 6.59 0 0 0 5.26 6.44 6.55 6.55 0 0 1-2.97.1 6.62 6.62 0 0 0 6.13 4.58 13.18 13.18 0 0 1-9.7 2.7A18.47 18.47 0 0 0 10.06 29c12.08 0 18.68-10 18.68-18.67 0-.29-.01-.57-.03-.85 1.3-.92 2.4-2.07 3.29-3.4z"/></symbol><symbol id="icon-envelope" viewBox="0 0 43 32"><path d="M38.67 0H4a4 4 0 0 0-4 4v24a4 4 0 0 0 4 4h34.67a4 4 0 0 0 4-4V4a4 4 0 0 0-4-4zm0 2.67c.18 0 .35.03.5.1L21.34 18.24 3.5 2.77c.16-.07.33-.1.51-.1h34.67zm0 26.66H4c-.74 0-1.33-.6-1.33-1.33V5.59L20.46 21a1.33 1.33 0 0 0 1.75 0L40 5.59V28c0 .74-.6 1.33-1.34 1.33z"/></symbol><symbol id="icon-antenna" viewBox="0 0 32 32"><path fill="#212121" style="fill:var(--color4, #212121)" d="m30.77 22.1-8.44-8.5.94-4.62c.24.1.5.14.75.14h.01a2.16 2.16 0 1 0-2-1.43l-4.97.6L8.97.16A.53.53 0 0 0 8.6 0a.53.53 0 0 0-.37.16l-1.51 1.5c-.2.2-.2.55 0 .75l.81.83a14.94 14.94 0 0 0 2.52 17.66c.05.04.1.08.15.1-.04.18-.05.36-.05.55v6.18h-6.4a2.67 2.67 0 0 0-2.67 2.67v1.07c0 .3.24.53.53.53h24.54c.29 0 .53-.24.53-.53V30.4c0-1.47-1.2-2.66-2.67-2.66h-6.4v-2.75a14.85 14.85 0 0 0 10.09-1.46l.82.82a.53.53 0 0 0 .75 0l1.51-1.5c.2-.2.2-.54 0-.75zM23.28 6.23a1.07 1.07 0 1 1 .75 1.82 1.07 1.07 0 0 1-.75-1.82zm-1.26 3.5-.6 2.95-1.17-1.18 1.78-1.76zm-.6-.9-1.92 1.92L18 9.25l3.4-.41zM24 28.8c.89 0 1.6.72 1.6 1.6v.53H2.14v-.53c0-.88.71-1.6 1.6-1.6H24zm-7.46-2.13v1.06H11.2v-1.06h5.34zM11.2 25.6v-4.05c0-1.3 1.2-2.35 2.67-2.35s2.67 1.05 2.67 2.35v4.05H11.2zm6.4-1.7v-2.35c0-1.89-1.67-3.42-3.73-3.42a3.8 3.8 0 0 0-3.28 1.79A13.87 13.87 0 0 1 8.31 4.03l18.6 18.71a13.82 13.82 0 0 1-9.3 1.16zm11.3-.68L7.83 2.04l.75-.75 7.94 7.98 13.12 13.2-.76.75z"/><path fill="#2196f3" style="fill:var(--color5, #2196f3)" d="M13.88 20.27a1.6 1.6 0 1 0-.01 3.2 1.6 1.6 0 1 0 0-3.2zm.37 1.98c-.1.1-.24.15-.38.15a.53.53 0 0 1 0-1.07.53.53 0 0 1 .37.92z"/></symbol><symbol id="icon-astronaut" viewBox="0 0 32 32"><path fill="#2196f3" style="fill:var(--color5, #2196f3)" d="M31.97 4.52a.53.53 0 0 0-.43-.36l-1.9-.28-.86-1.73c-.18-.36-.78-.36-.96 0l-.85 1.73-1.91.28a.54.54 0 0 0-.3.91l1.38 1.35-.32 1.9c-.04.2.05.4.21.52.17.12.38.14.56.04l1.71-.9 1.71.9a.54.54 0 0 0 .78-.56l-.33-1.9 1.38-1.35c.15-.14.2-.35.14-.55zm-2.46 1.33a.53.53 0 0 0-.15.47l.19 1.12-1-.53a.53.53 0 0 0-.5 0l-1 .53.2-1.12a.53.53 0 0 0-.16-.47l-.81-.79 1.12-.16a.53.53 0 0 0 .4-.3l.5-1 .5 1c.08.16.23.27.4.3l1.12.16-.8.8zM26.13 20.52h-1.06v1.07h1.06v-1.07zM26.13 22.66h-1.06v1.06h1.06v-1.06zM27.2 21.59h-1.07v1.07h1.07v-1.07zM25.07 21.59H24v1.07h1.07v-1.07zM22.4 26.39h-1.07v1.07h1.07v-1.07zM22.4 28.52h-1.07v1.07h1.07v-1.07zM23.47 27.46H22.4v1.06h1.07v-1.06zM21.33 27.46h-1.06v1.06h1.06v-1.06zM16 24.26h-1.07v1.06H16v-1.06zM16 26.39h-1.07v1.07H16v-1.07zM17.07 25.32H16v1.07h1.07v-1.07zM14.93 25.32h-1.06v1.07h1.06v-1.07zM5.87 6.12H4.8V7.2h1.07V6.12zM5.87 8.26H4.8v1.06h1.07V8.26zM6.93 7.19H5.87v1.07h1.06V7.19zM4.8 7.19H3.73v1.07H4.8V7.19z"/><path fill="#212121" style="fill:var(--color4, #212121)" d="M24.71 14.16c-.28-.39-.7-.64-1.18-.7-.48-.07-.96.05-1.34.35l-1.26.96-1.9 1.41-1.35-.54A6.94 6.94 0 0 0 14.83 2.4a6.96 6.96 0 0 0-6.96 6.93c0 1.39.42 2.68 1.12 3.76l-2.76-.02H6.2l-.16.03-.03.02h-.02l-3.24 1.6-1.89.9a1.78 1.78 0 0 0 .93 3.3c.3.01.58-.06.84-.2l1.4-.74 2.26-1.17h1.35L2.2 22.2.86 23.55a1.65 1.65 0 0 0 0 2.35 1.67 1.67 0 0 0 2.36 0l1.31-1.3 1.74-1.3.9.89-1.76 1.75-1.34 1.34a1.65 1.65 0 0 0 0 2.36 1.67 1.67 0 0 0 2.36 0l3.48-3.47 1.01-1 .02-.02 5.17-5.66 3.47.5h.07c.07 0 .13-.02.2-.04l.04-.02.06-.03 3.21-2.13.03-.03.04-.03 1.27-1.19c.67-.62.76-1.63.22-2.36zM2.14 17.77a.71.71 0 0 1-.56.05.72.72 0 0 1-.21-1.26l1.31-.63.45 1.31-.99.53zm3.5-1.83-1.55.8-.44-1.28 2.03-1-.04 1.48zm15.1-6.62c0 .92-.22 1.79-.6 2.56l-4.18-1.9a1.86 1.86 0 0 0-.8-1.39l1.47-4.86a5.88 5.88 0 0 1 4.1 5.6zm-11.8 0a5.89 5.89 0 0 1 6.65-5.81l-1.44 4.75h-.05a1.87 1.87 0 1 0 0 3.73c.7 0 1.3-.38 1.62-.95l3.86 1.76A5.9 5.9 0 0 1 8.94 9.32zm5.96.8a.8.8 0 0 1-1.6 0 .8.8 0 0 1 1.6 0zM2.46 25.15a.6.6 0 0 1-.85 0 .6.6 0 0 1 0-.85l.96-.95.85.84-.96.96zm3.22 3.73a.6.6 0 0 1-.86 0 .6.6 0 0 1 0-.84l.97-.96.85.85-.96.95zm3.48-3.47-1.77 1.76-.85-.85 1.76-1.75c.05-.04.07-.09.1-.14l.02-.04c.02-.04.02-.08.03-.13l.01-.07-.02-.1c0-.04 0-.07-.02-.1a.55.55 0 0 0-.09-.14l-.02-.04-1.61-1.6-.06-.04a.5.5 0 0 0-.09-.05.51.51 0 0 0-.09-.04.5.5 0 0 0-.1-.02.5.5 0 0 0-.1 0l-.1.03a.48.48 0 0 0-.1.04l-.06.03-1.77 1.33-.9-.9 2.4-2.39 4.36 4.3-.93.91zm6.82-7.02h-.05a.56.56 0 0 0-.3.08.5.5 0 0 0-.08.06l-.04.03-4.7 5.15-4.33-4.26 2.84-2.82a.53.53 0 0 0-.38-.9H6.72l.03-1.6 3.1.02a6.95 6.95 0 0 0 6.26 1.98c.04.03.08.07.13.09l2.41.96.33 1.64-3-.43zm4.04.18-.31-1.56 1.44-1.08.95 1.26-2.08 1.38zm3.75-2.83-.83.79-.94-1.24.84-.64a.73.73 0 0 1 .54-.14.72.72 0 0 1 .4 1.23z"/><path fill="#212121" style="fill:var(--color4, #212121)" d="m13.6 18.54-2.14-2.13a.53.53 0 0 0-.75 0l-2.15 2.13a.54.54 0 0 0 0 .76l2.15 2.13a.54.54 0 0 0 .75 0l2.14-2.13a.54.54 0 0 0 0-.76zm-2.52 1.76L9.7 18.92l1.38-1.38 1.39 1.38-1.39 1.38zM17.16 5.07l-.25 1.04c.07.01 1.73.45 1.73 2.15h1.07c0-2.02-1.66-2.97-2.55-3.19zM19.71 9.32h-1.07v1.07h1.07V9.32z"/></symbol><symbol id="icon-client1" viewBox="0 0 59 32"><path d="m24.35 8 2.44 2.3h-4.53v11.2H34.1v-4.28l2.43 2.3V8H24.35zm9.63 8.95-6.91-6.54h6.91v6.54zm-2.15 2.91h-7.7v-7.53h.55v7.02h7.15v.51zM25.95 23l-.28.59-.29-.59h-.24l.42.78v.46h.21v-.46l.42-.78h-.24zm.36 1.24.1-.3h.48l.1.3h.22l-.47-1.24h-.19l-.47 1.24h.23zm.34-.98.18.52h-.36l.18-.52zm1.13.49a.32.32 0 0 0 .06.41c.08.06.18.1.3.1s.23-.04.31-.1l.07.08h.24l-.18-.22c.07-.1.1-.22.1-.37h-.17c0 .08-.02.16-.05.23l-.24-.29.08-.06c.06-.04.1-.08.13-.13s.04-.09.04-.14c0-.08-.03-.14-.09-.2s-.13-.08-.22-.08c-.1 0-.18.03-.24.09s-.08.13-.08.23c0 .04 0 .08.02.12l.1.16a.73.73 0 0 0-.18.17zm.56.27a.32.32 0 0 1-.2.07c-.06 0-.1-.02-.14-.05s-.06-.09-.06-.14c0-.07.03-.13.1-.18l.03-.02.27.32zm-.22-.55c-.06-.07-.09-.13-.09-.18 0-.04.01-.07.04-.1s.05-.04.1-.04l.09.03c.03.02.03.05.03.09 0 .04-.02.08-.05.12l-.03.02-.1.06zm2.01.67a.45.45 0 0 0 .15-.3h-.22c0 .08-.04.15-.08.18s-.1.06-.19.06c-.1 0-.16-.03-.21-.1s-.07-.18-.07-.31v-.11c0-.13.03-.23.07-.3s.13-.1.22-.1c.08 0 .14.02.18.06s.07.1.08.19h.22c-.02-.14-.07-.24-.15-.32s-.2-.1-.33-.1c-.1 0-.19.02-.27.06s-.13.12-.17.21a.73.73 0 0 0-.07.3v.12c0 .12.03.22.07.3s.1.16.17.2c.08.05.16.07.26.07a.5.5 0 0 0 .34-.1zm1.26-.17c.04-.1.06-.2.06-.32v-.07c0-.12-.02-.22-.06-.31s-.1-.17-.18-.21c-.08-.05-.17-.08-.27-.08s-.19.03-.27.08c-.07.05-.13.12-.18.2s-.06.2-.06.33v.07c0 .12.02.22.06.31a.47.47 0 0 0 .45.28c.1 0 .2-.02.27-.07s.14-.12.18-.21zm-.23-.7c.05.07.08.18.08.32v.06c0 .14-.03.25-.08.32s-.12.1-.22.1c-.09 0-.16-.03-.22-.1s-.08-.18-.08-.32v-.07c0-.13.03-.23.08-.3s.13-.12.22-.12c.1 0 .17.04.22.11z"/></symbol><symbol id="icon-client2" viewBox="0 0 59 32"><path d="M28.56 7.63H28.14a8.43 8.43 0 0 0-.45 0c-1.27.07-2.51.4-3.66.93l-.15.08v7.7l.35-.12a11.95 11.95 0 0 1 3.8-.66v1l-.38.02h-.03a11.17 11.17 0 0 0-4.74 1.34V8.04a10.33 10.33 0 0 1 5.26-1.43h.15a9.08 9.08 0 0 1 1.78.23v1a8 8 0 0 0-1.23-.2h-.28zm1.75 1.02.69.02a10.94 10.94 0 0 0 5.26-1.35v9.7a10.39 10.39 0 0 1-7.2 1.2V8.46a9.12 9.12 0 0 0 1.25.19zm4.94.07-.35.12c-.32.11-.65.2-.98.3a11.93 11.93 0 0 1-3.57.35l-.28-.02v7.92l.24.02.69.03a9.33 9.33 0 0 0 4.1-.94l.15-.07v-7.7zM23.56 21.3a.53.53 0 0 0-.4-.17.58.58 0 0 0-.22.05.52.52 0 0 0-.29.29.58.58 0 0 0-.04.22V23c0 .09.02.18.06.27.03.07.07.13.13.17.05.05.11.08.18.1.06.02.13.03.2.03a.55.55 0 0 0 .55-.55v-.16h-.35V23l-.02.12a.2.2 0 0 1-.05.07.22.22 0 0 1-.08.04.22.22 0 0 1-.07.01l-.09-.01a.15.15 0 0 1-.07-.06.32.32 0 0 1-.04-.18v-1.23c0-.06 0-.13.04-.2a.17.17 0 0 1 .17-.07.18.18 0 0 1 .15.07c.04.05.06.12.06.18v.11h.34v-.13a.63.63 0 0 0-.16-.42zM25.61 21.28a.61.61 0 0 0-.6-.11.54.54 0 0 0-.32.3.6.6 0 0 0-.04.25v1.26c0 .1.01.18.05.26.03.07.07.13.13.18.05.05.12.09.18.11a.6.6 0 0 0 .41 0c.07-.03.14-.06.2-.11s.09-.11.12-.18a.6.6 0 0 0 .05-.26v-1.26a.57.57 0 0 0-.18-.44zm-.16 1.7-.01.1a.23.23 0 0 1-.06.09.25.25 0 0 1-.32 0 .23.23 0 0 1-.07-.19v-1.26l.01-.1a.23.23 0 0 1 .06-.09.25.25 0 0 1 .32 0 .23.23 0 0 1 .07.19v1.26zM28.3 23.55v-2.4h-.33l-.44 1.27-.44-1.27h-.33v2.4h.34v-1.46l.34 1.03h.17l.34-1.03v1.46h.35zM30.25 21.32a.48.48 0 0 0-.2-.13.75.75 0 0 0-.25-.04h-.5v2.4h.34v-.94h.17c.1 0 .21-.02.31-.06a.58.58 0 0 0 .27-.4c0-.08.02-.18.01-.27 0-.11 0-.23-.03-.34a.5.5 0 0 0-.13-.22zm-.18.73c0 .04-.01.09-.03.13a.2.2 0 0 1-.09.08.34.34 0 0 1-.16.03h-.16v-.82h.18l.15.03a.2.2 0 0 1 .08.1c.02.03.03.08.03.13v.32zM31.86 21.15h-.28l-.52 2.4h.34l.1-.52h.46l.1.52h.34l-.54-2.4zm-.31 1.56.17-.87.17.87h-.34zM34.07 22.6l-.52-1.45h-.33v2.4h.34V22.1l.53 1.44h.32v-2.4h-.34v1.44zM36.16 21.15l-.28.96-.28-.96h-.36l.47 1.39v1h.34v-1l.47-1.39h-.36zM22.6 24.22h.17v.47h.12v-.47h.16v-.1h-.44v.1zM24 24.13l-.22.56h.11l.05-.13h.22l.05.13h.12l-.22-.56h-.12zm-.03.34.08-.21.08.2h-.15zM25.36 24.48h.13v.07a.21.21 0 0 1-.13.05l-.07-.01a.15.15 0 0 1-.05-.04.23.23 0 0 1-.04-.15c0-.12.05-.18.16-.18.02 0 .05 0 .07.02s.04.04.05.07l.11-.03c-.02-.1-.1-.16-.23-.16a.28.28 0 0 0-.2.07.28.28 0 0 0-.08.22c0 .07.02.15.07.2a.27.27 0 0 0 .21.09c.09 0 .18-.03.24-.1v-.21h-.24v.1zM26.76 24.13h-.12v.56h.4v-.1h-.28v-.46zM27.94 24.13h-.12v.56h.12v-.56zM29.1 24.5l-.24-.37h-.1v.56h.1v-.37l.22.37h.12v-.56h-.1v.37zM30.14 24.44h.27v-.1h-.27v-.12h.3v-.1h-.42v.57h.42v-.1h-.3v-.15zM32.66 24.35h-.21v-.22h-.12v.56h.12v-.25h.21v.25h.12v-.56h-.12v.22zM33.72 24.44h.27v-.1h-.27v-.12h.3v-.1h-.42v.57h.42v-.1h-.3v-.15zM35.14 24.44c.1-.01.14-.07.14-.15v-.07c0-.02-.03-.04-.05-.06a.31.31 0 0 0-.16-.03h-.24v.56h.11v-.24h.03c.02 0 .04 0 .07.02l.04.04.12.17h.13l-.07-.1a.4.4 0 0 0-.12-.14zm-.11-.08h-.09v-.14h.1c.03 0 .07 0 .1.02l.02.02.01.04a.07.07 0 0 1-.03.05.31.31 0 0 1-.11.01zM36.21 24.44h.28v-.1h-.28v-.12h.3v-.1h-.41v.57h.42v-.1h-.3v-.15z"/></symbol><symbol id="icon-client3" viewBox="0 0 59 32"><path d="M23.8 22.64h.01l.01.01.08.08a.63.63 0 0 1-.21.14c-.1.03-.2.05-.3.04-.1 0-.2 0-.3-.04a.58.58 0 0 1-.35-.33.67.67 0 0 1 .01-.52.6.6 0 0 1 .15-.2c.06-.06.14-.1.22-.13a.9.9 0 0 1 .57 0c.07.02.14.06.2.11l-.06.08-.02.01h-.05l-.03-.02-.05-.03-.06-.02a.63.63 0 0 0-.41 0 .45.45 0 0 0-.27.25.52.52 0 0 0-.04.2c0 .08 0 .15.04.22a.43.43 0 0 0 .26.25.75.75 0 0 0 .31.03.47.47 0 0 0 .25-.11l.03-.02zM25.98 22.28c0 .09-.01.17-.05.26a.6.6 0 0 1-.37.33.92.92 0 0 1-.57 0 .66.66 0 0 1-.22-.13.59.59 0 0 1-.15-.2.67.67 0 0 1 0-.52.6.6 0 0 1 .15-.2c.06-.06.14-.1.22-.13a.9.9 0 0 1 .58 0c.08.03.16.08.22.13s.11.13.14.2c.04.09.06.17.05.26zm-.2 0a.54.54 0 0 0-.03-.2.43.43 0 0 0-.26-.26.67.67 0 0 0-.42 0 .46.46 0 0 0-.16.1.41.41 0 0 0-.1.15.6.6 0 0 0 0 .42.41.41 0 0 0 .26.25c.13.04.28.04.42 0a.44.44 0 0 0 .16-.1c.04-.04.08-.1.1-.15a.54.54 0 0 0 .03-.21zM27.48 22.5l.02.04.02-.04.03-.05.48-.76.03-.03H28.24v1.24h-.17V21.91l-.49.77-.03.03a.07.07 0 0 1-.04.01h-.02l-.05-.01c-.02-.01-.02-.02-.02-.03l-.5-.78v1h-.17v-1.24H26.93l.03.03.5.76.02.05zM29.3 22.43v.47h-.19v-1.24h.42c.08 0 .16 0 .24.02l.17.08.1.12c.01.05.03.1.02.16a.35.35 0 0 1-.13.29.48.48 0 0 1-.17.08.8.8 0 0 1-.23.03h-.23zm0-.13h.23c.05 0 .1 0 .15-.02a.31.31 0 0 0 .1-.05.2.2 0 0 0 .07-.08.25.25 0 0 0 .02-.11c0-.03 0-.07-.02-.1l-.06-.09a.4.4 0 0 0-.26-.06h-.23v.5zM31.85 22.9h-.15l-.04-.01a.09.09 0 0 1-.03-.03l-.12-.3h-.65l-.14.3c0 .01 0 .02-.02.03a.07.07 0 0 1-.04.01h-.15l.57-1.24h.2l.57 1.24zm-.94-.46h.54l-.23-.5a.82.82 0 0 1-.04-.13l-.02.07-.02.05-.23.5zM32.67 21.66l.03.02.83.94v-.96h.17v1.24h-.14c-.02 0-.02-.02-.03-.03l-.82-.94v.98h-.17v-1.25h.1a.1.1 0 0 1 .03 0zM35.1 22.4v.5h-.2v-.5l-.52-.74H34.6l.03.04.33.48a.54.54 0 0 1 .06.11l.02-.05a.4.4 0 0 1 .03-.06l.33-.49a.1.1 0 0 1 .02-.02c.01-.01.03-.02.04-.01h.17l-.52.75zM27.39 19.57l.25.02c1.28-.5 2.36-1.31 3.1-2.34s1.14-2.23 1.11-3.44l-1.4-1.23c.28 1.3.15 2.64-.4 3.87s-1.46 2.31-2.67 3.12z"/><path d="M26.88 19.51h.04c1.29-.8 2.27-1.91 2.82-3.2s.64-2.7.26-4.03l-2-1.75c.8 1.44 1.13 3.04.93 4.63s-.9 3.1-2.05 4.35zM33.7 15.24a6.27 6.27 0 0 1-2.37 3.44c-.35.27-.72.5-1.12.7.97-.24 1.86-.68 2.6-1.28s1.33-1.33 1.7-2.15l-.82-.7z"/><path d="m33.37 15.05-1.16-1.01c-.02 1.15-.4 2.27-1.08 3.25s-1.68 1.78-2.84 2.32c.26 0 .52-.01.78-.04 1.1-.38 2.06-1 2.8-1.79s1.27-1.73 1.5-2.73zM27.05 9.8l-1.39-1.2c-1.23.4-2.3 1.14-3.05 2.09s-1.15 2.07-1.16 3.22c0 1.27.5 2.51 1.4 3.51s2.17 1.72 3.6 2.02c1.26-1.34 2-3 2.11-4.73s-.42-3.46-1.51-4.92zM36.57 14.86c0-1.5-.7-2.96-1.93-4.02s-2.9-1.67-4.63-1.68c-.8 0-1.6.13-2.35.38l8.47 7.36c.3-.65.44-1.34.44-2.04z"/></symbol><symbol id="icon-client4" viewBox="0 0 59 32"><path d="M19.53 12.9c-.84 0-1.51.6-1.51 1.35 0 .74.67 1.34 1.5 1.34.84 0 1.52-.6 1.52-1.34 0-.74-.68-1.35-1.51-1.35zM30.68 12.48c0-1.03-.47-2.02-1.29-2.75S27.46 8.6 26.31 8.6c-1.16 0-2.27.41-3.1 1.14s-1.27 1.72-1.28 2.75v5.67s8.75-.86 8.75-5.67zM14.96 20.02c0 .71.32 1.4.89 1.9a3.29 3.29 0 0 0 4.3 0c.57-.5.89-1.19.89-1.9v-3.95s-6.08.6-6.08 3.95zm3.04.7c-.16 0-.31-.04-.44-.11s-.24-.2-.3-.32c-.06-.13-.07-.27-.04-.41s.1-.26.22-.36c.1-.1.25-.17.4-.2s.32-.01.46.04c.15.06.27.15.36.26s.14.26.14.4a.66.66 0 0 1-.23.5c-.08.07-.17.12-.27.15s-.2.06-.3.06zM24.14 20.34h-.58v.6h-.3v-1.48h.96v.24h-.66v.39h.59v.25zm1.47-.1c0 .14-.02.27-.07.38s-.13.2-.22.25a.62.62 0 0 1-.66 0 .59.59 0 0 1-.23-.25.88.88 0 0 1-.08-.38v-.07c0-.15.03-.28.08-.39s.13-.2.22-.25a.62.62 0 0 1 .66 0c.1.06.17.14.22.25s.08.24.08.39v.06zm-.3-.07c0-.16-.03-.28-.09-.36s-.13-.12-.24-.12c-.1 0-.18.04-.23.12s-.09.2-.09.35v.07c0 .15.03.27.09.36s.13.12.24.12c.1 0 .18-.04.23-.12s.09-.2.09-.35v-.07zm1.3.38c0-.06-.02-.1-.06-.13s-.12-.07-.22-.1c-.11-.03-.2-.07-.26-.1-.17-.1-.25-.21-.25-.37 0-.08.02-.15.07-.21s.1-.11.2-.15a.74.74 0 0 1 .56 0c.08.04.15.1.2.17s.06.15.06.23h-.3c0-.06-.02-.12-.07-.15s-.1-.06-.18-.06c-.07 0-.13.02-.17.05s-.06.07-.06.12c0 .05.02.09.07.12s.12.06.21.1c.18.05.3.11.38.19s.12.17.12.29c0 .13-.05.23-.14.3s-.23.11-.4.11c-.11 0-.21-.02-.3-.06s-.17-.1-.22-.17a.44.44 0 0 1-.08-.26h.31c0 .17.1.25.3.25.07 0 .12-.02.17-.05s.06-.07.06-.12zm1.63-.85h-.46v1.24h-.3V19.7h-.45v-.24h1.2v.24zm1.07.6h-.6v.4h.7v.24h-1v-1.48h1v.25h-.7v.35h.6v.24zm.83.1h-.25v.54h-.3v-1.48h.55c.17 0 .3.04.4.11s.15.2.15.34c0 .1-.03.18-.07.25s-.11.12-.2.16l.32.6v.02h-.33l-.27-.54zm-.25-.25h.25c.08 0 .14-.02.18-.06s.06-.09.06-.16-.02-.12-.06-.16-.1-.06-.18-.06h-.25v.44zm1.86.27v.52h-.31v-1.48h.58c.1 0 .2.02.3.06s.14.1.19.17c.04.08.06.16.06.26 0 .14-.05.26-.15.34s-.23.13-.4.13h-.28zm0-.25h.27c.08 0 .14-.02.18-.06s.07-.09.07-.16-.03-.13-.07-.17-.1-.07-.18-.07h-.28v.46zm1.93.13h-.59v.4h.7v.24h-1v-1.48h.99v.25h-.69v.35h.59v.24zm1.42-.6h-.46v1.24h-.3V19.7h-.45v-.24h1.2v.24zm1.07.6h-.6v.4h.7v.24h-1v-1.48h1v.25h-.7v.35h.6v.24zm.83.1h-.25v.54h-.3v-1.48H37c.17 0 .3.04.4.11s.15.2.15.34c0 .1-.02.18-.07.25s-.1.12-.2.16l.32.6v.02h-.32L37 20.4zm-.25-.25H37c.08 0 .14-.02.18-.06s.06-.09.06-.16a.22.22 0 0 0-.06-.16c-.04-.04-.1-.06-.18-.06h-.25v.44zm1.8.4c0-.06-.02-.1-.06-.13s-.12-.07-.22-.1a1.6 1.6 0 0 1-.25-.1c-.17-.1-.26-.21-.26-.37 0-.08.03-.15.07-.21.05-.07.11-.11.2-.15s.18-.05.28-.05c.1 0 .2.02.28.05s.15.1.2.17c.04.07.07.15.07.23h-.31c0-.06-.02-.12-.06-.15s-.1-.06-.18-.06c-.08 0-.14.02-.18.05s-.06.07-.06.12c0 .05.02.09.07.12s.12.06.22.1c.17.05.3.11.38.19s.12.17.12.29c0 .13-.05.23-.15.3s-.23.11-.4.11c-.1 0-.21-.02-.3-.06s-.17-.1-.22-.17a.44.44 0 0 1-.07-.26h.3c0 .17.1.25.3.25.07 0 .13-.02.17-.05s.06-.07.06-.12z"/></symbol><symbol id="icon-client5" viewBox="0 0 59 32"><path d="M20.44 21.13c.08.1.13.21.12.34 0 .08 0 .16-.04.23s-.09.14-.15.2a.92.92 0 0 1-.58.15h-1V19.9h.98a.9.9 0 0 1 .55.14c.06.05.11.11.15.18s.05.15.04.22c0 .12-.03.24-.11.33a.54.54 0 0 1-.3.17c.13.02.25.09.34.18zm-1.19-.33h.43c.1 0 .19-.02.26-.07a.25.25 0 0 0 .1-.21c0-.04 0-.08-.02-.12l-.07-.1a.44.44 0 0 0-.28-.07h-.42v.57zm.74.83c.03-.03.06-.06.07-.1s.03-.08.03-.12c0-.05 0-.09-.03-.12l-.08-.1a.47.47 0 0 0-.28-.08h-.45v.59h.45c.1 0 .2-.02.29-.07zM22.46 22.05l-.55-.84h-.2v.84h-.48V19.9h.9c.22-.02.44.05.62.18.12.12.2.27.21.43s-.04.33-.14.46a.75.75 0 0 1-.43.22l.58.86h-.51zm-.76-1.13h.39c.27 0 .4-.11.4-.33 0-.04 0-.09-.02-.13s-.04-.08-.08-.11a.44.44 0 0 0-.3-.09h-.4l.01.66zM25.05 21.62h-.95l-.16.43h-.5l.87-2.13h.53l.87 2.13h-.5l-.16-.43zm-.13-.33-.34-.9-.35.9h.69zM28.29 22.05h-.47l-1.06-1.46v1.46h-.47V19.9h.47l1.06 1.47V19.9h.47v2.15zM30.97 21.54c-.1.16-.25.3-.43.38-.2.1-.43.14-.66.13h-.84V19.9h.84c.23 0 .46.04.66.13.18.08.33.21.43.38a1.16 1.16 0 0 1 0 1.13zm-.54-.06a.75.75 0 0 0 0-1.03.87.87 0 0 0-.59-.18h-.32v1.4h.32c.22 0 .43-.06.59-.19zM25.34 7.92s6.07 2.1 5.94 5.13v5.13s-6.06-2.1-5.94-5.13V7.92zM36.68 16.98a8.8 8.8 0 0 1 3.86-1.3v-1.6a7.79 7.79 0 0 0-3.86 2.9z"/><path d="M36 17.46a8.03 8.03 0 0 1 4.54-3.72V9.1s-8.64 2.98-8.46 7.3v7.31s.39-.13.99-.38a7.4 7.4 0 0 1 2.92-5.87z"/><path d="M35.17 20.18c.05-.5.15-1.01.3-1.5a6.76 6.76 0 0 0-1.83 4.42c.5-.22 1.07-.49 1.67-.8-.16-.7-.2-1.41-.14-2.12zM35.52 20.2c-.06.64-.03 1.29.1 1.92 2.36-1.3 5.01-3.29 4.91-5.7v-.21a8.07 8.07 0 0 0-4.49 1.92 6.71 6.71 0 0 0-.52 2.08z"/></symbol><symbol id="icon-client6" viewBox="0 0 59 32"><path d="M29.71 15.1c-.15-.2-.22-.45-.2-.7v-1c0-.3.06-.54.2-.7s.38-.24.72-.24c.32 0 .55.07.68.2.14.18.22.4.2.6v.24h-.57v-.24c0-.07 0-.15-.02-.23 0-.05-.04-.1-.08-.14a.33.33 0 0 0-.2-.05.35.35 0 0 0-.22.05.27.27 0 0 0-.1.16c-.02.08-.02.16-.02.24v1.22c-.01.12.01.24.07.34a.29.29 0 0 0 .26.1c.08.01.15 0 .2-.05.05-.04.08-.1.09-.15l.02-.24v-.25h.57v.23a.92.92 0 0 1-.2.63c-.13.15-.35.22-.68.22s-.58-.08-.72-.24zM32.09 15.1c-.15-.15-.22-.37-.22-.68v-1.05c0-.3.07-.52.22-.68s.38-.23.72-.23c.34 0 .58.08.72.23s.22.38.22.68v1.05c0 .3-.07.53-.22.69s-.39.23-.72.23-.58-.08-.72-.23zm.99-.24a.6.6 0 0 0 .07-.32v-1.29c0-.1-.02-.2-.07-.3-.03-.04-.07-.07-.12-.09s-.1-.02-.15-.02c-.05 0-.1 0-.15.02s-.09.05-.11.09c-.06.1-.08.2-.07.3v1.3c-.01.1.01.21.07.31.03.04.07.06.12.08s.1.03.14.03l.15-.03a.34.34 0 0 0 .12-.08zM34.44 12.5h.61l.46 1.94.48-1.95h.6l.05 2.81h-.44l-.05-1.95-.45 1.95h-.36l-.47-1.96-.04 1.96h-.45l.06-2.8zM37.33 12.5h.96c.55 0 .83.26.83.8 0 .5-.3.76-.87.76h-.33v1.24h-.6l.01-2.8zm.82 1.2a.46.46 0 0 0 .33-.1c.06-.09.1-.2.08-.31 0-.09 0-.17-.03-.25 0-.03-.02-.06-.04-.08l-.08-.06a.62.62 0 0 0-.26-.04h-.23v.84h.23zM39.97 12.5h.63l.65 2.8h-.55l-.13-.64h-.56l-.13.64h-.56l.65-2.8zm.54 1.83-.22-1.18-.22 1.18h.44zM41.78 12.5h.41l.8 1.6v-1.6h.49v2.8h-.4l-.8-1.67v1.67h-.5v-2.8zM44.62 14.23l-.65-1.73h.55l.4 1.11.38-1.11h.54l-.65 1.73v1.07h-.56v-1.07zM30.63 16.53v.15h-.49v1.14h-.2v-1.14h-.48v-.15h1.17zM32.14 17.82h-.16l-.04-.01a.06.06 0 0 1-.03-.03l-.14-.3h-.67l-.14.3c0 .01 0 .02-.02.03a.07.07 0 0 1-.04.02h-.16l.6-1.3h.2l.6 1.3zm-.98-.48h.56l-.24-.52a1.1 1.1 0 0 1-.04-.12l-.03.07-.02.05-.23.52zM33.16 17.7h.1a.75.75 0 0 0 .27-.07v-.3h-.27l-.01-.02v-.1h.45v.49a.82.82 0 0 1-.25.1 1.2 1.2 0 0 1-.62-.01.73.73 0 0 1-.23-.14.6.6 0 0 1-.2-.47c0-.09.01-.18.05-.27.03-.07.08-.14.15-.2s.15-.1.23-.13a1 1 0 0 1 .48-.04.85.85 0 0 1 .26.08l.1.07-.05.08a.06.06 0 0 1-.05.02h-.03a.48.48 0 0 1-.06-.04.56.56 0 0 0-.19-.06.84.84 0 0 0-.38.02.45.45 0 0 0-.28.26.6.6 0 0 0 0 .44c.02.06.06.11.12.16.04.04.1.08.17.1.07.02.15.03.23.03zM35.04 17.67h.64v.15h-.84v-1.29h.2v1.14zM36.35 17.82h-.2v-1.29h.2v1.3zM37.1 16.54a.1.1 0 0 1 .04.02l.86.97v-1h.18v1.3h-.1a.1.1 0 0 1-.05-.02.13.13 0 0 1-.03-.02l-.86-.97v1h-.17v-1.29h.1a.1.1 0 0 1 .04 0zM39.66 16.53v.15h-.71v.42h.58v.14h-.58v.44h.71v.14h-.92v-1.29h.92zM18.5 8.58l8.96 2.2v7.7l-8.97-2.2v-7.7zm-.58-.66v8.74l10.12 2.48V10.4L17.92 7.92z"/><path d="M23.34 23.2 13.22 20.7v-8.74l10.12 2.49v8.74z"/><path d="m18.08 8.48 8.86 2.17-3.77 3.25-8.85-2.17 3.76-3.25zm-.16-.56-4.7 4.05 10.12 2.49 4.7-4.06-10.12-2.48zM23.91 22.7l4.13-3.56-4.13-1.01v4.58z"/></symbol><symbol id="icon-clock" viewBox="0 0 32 32"><path fill="#212121" style="fill:var(--color4, #212121)" d="M31.3 15.3a15.3 15.3 0 1 0-19.96 14.58l.18.03c.12 0 .24-.03.35-.1.13-.07.23-.2.28-.35L16 17.21a1.91 1.91 0 1 0-.84-3.63l-5.1-5.1a.64.64 0 0 0-.9.9l5.1 5.1c-.4.8-.17 1.77.53 2.31l-3.68 11.67a14.04 14.04 0 1 1 10.57-.35l-.4-1.87a.64.64 0 0 0-1.04-.34l-3.84 3.42a.64.64 0 0 0 .23 1.09l4.9 1.56a.64.64 0 0 0 .82-.74l-.4-1.84A15.26 15.26 0 0 0 31.3 15.3zM16 14.66a.64.64 0 1 1 0 1.28.64.64 0 0 1 0-1.28zm2.1 14.87 2.18-1.95.6 2.84-2.79-.9z"/><path fill="#2196f3" style="fill:var(--color5, #2196f3)" d="M15.35 3.19v1.27a.64.64 0 1 0 1.28 0V3.19a.64.64 0 0 0-1.28 0zM3.88 14.66a.64.64 0 0 0 0 1.28h1.27a.64.64 0 1 0 0-1.28H3.88zM28.1 15.94a.64.64 0 1 0 0-1.28h-1.27a.64.64 0 0 0 0 1.28h1.28z"/></symbol><symbol id="icon-diagram" viewBox="0 0 32 32"><path fill="#2196f3" style="fill:var(--color5, #2196f3)" d="M14.93 14.96h1.06v4.8h-1.06v-4.8zM19.19 17.1h1.07v2.66h-1.07V17.1zM10.66 18.7h1.07v1.06h-1.07V18.7zM7.46 18.16h1.07v1.6H7.46v-1.6z"/><path fill="#212121" style="fill:var(--color4, #212121)" d="M1.6 28.3h25.59c.88 0 1.6-.73 1.6-1.6v-2.14c0-.88-.72-1.6-1.6-1.6h-.54V9.66l3.03-2.86a1.6 1.6 0 1 0-.75-.76L26.65 8.2V6.97c0-.88-.71-1.6-1.6-1.6H3.73c-.88 0-1.6.72-1.6 1.6v16H1.6c-.88 0-1.6.7-1.6 1.6v2.12c0 .89.72 1.6 1.6 1.6zM30.38 4.83a.53.53 0 1 1 0 1.06.53.53 0 0 1 0-1.06zM3.2 6.97c0-.3.24-.53.53-.53h21.32c.3 0 .54.23.54.53V9.2l-1.07 1.01V8.03c0-.29-.24-.53-.53-.53H4.79c-.29 0-.53.24-.53.53v13.33c0 .3.24.53.54.53h19.19c.3 0 .53-.23.53-.53V11.7l1.07-1.01v12.28H3.19v-16zM8 13.9a1.6 1.6 0 1 0 1.1 2.75l1.86.93c.21.1.47.06.63-.12l3.94-4.44 3.87 2.9c.21.16.5.14.69-.03l3.36-3.2v8.14H5.33V8.57h18.12v2.66l-3.77 3.57-3.9-2.93a.53.53 0 0 0-.72.08l-4 4.49-1.49-.75c.02-.06.02-.13.02-.19 0-.88-.71-1.6-1.6-1.6zm.53 1.6a.53.53 0 1 1-1.07 0 .53.53 0 0 1 1.07 0zm3.2 8.53h5.33v.53c0 .3-.24.53-.53.53h-4.27a.53.53 0 0 1-.53-.53v-.53zm-10.66.53c0-.3.24-.53.53-.53h9.06v.53c0 .88.72 1.6 1.6 1.6h4.26c.89 0 1.6-.72 1.6-1.6v-.53h9.06c.3 0 .54.24.54.53v2.13c0 .3-.24.53-.53.53H1.59a.53.53 0 0 1-.52-.53v-2.13z"/></symbol><symbol id="icon-facebook" viewBox="0 0 32 32"><path d="M21.33 5.31h2.92V.23C23.75.15 22.01 0 19.99 0c-4.2 0-7.1 2.65-7.1 7.52V12H8.26v5.69h4.65V32h5.7V17.69h4.46l.7-5.69H18.6V8.08c0-1.64.45-2.77 2.74-2.77z"/></symbol><symbol id="icon-linkedin" viewBox="0 0 32 32"><path d="M32 32V20.26c0-5.74-1.24-10.16-7.95-10.16-3.23 0-5.39 1.77-6.27 3.45h-.1v-2.92h-6.36V32h6.63V21.42c0-2.79.52-5.48 3.97-5.48 3.4 0 3.45 3.18 3.45 5.66V32H32zM.53 10.64h6.63V32H.53V10.64zM3.84 0C1.72 0 0 1.72 0 3.84s1.72 3.88 3.84 3.88A3.88 3.88 0 0 0 7.7 3.84 3.85 3.85 0 0 0 3.84 0z"/></symbol><symbol id="icon-smartphone" viewBox="0 0 20 32"><path d="M17 0H3a3 3 0 0 0-3 3v26a3 3 0 0 0 3 3h14a3 3 0 0 0 3-3V3a3 3 0 0 0-3-3zM3 2h14a1 1 0 0 1 1 1v21H2V3a1 1 0 0 1 1-1zm14 28H3a1 1 0 0 1-1-1v-3h16v3a1 1 0 0 1-1 1z"/><path d="M4.7 27.48c.4.36.4.95 0 1.32s-1.02.36-1.4 0c-.4-.37-.4-.96 0-1.32s1.02-.37 1.4 0z"/></symbol></defs></svg>